<svg width="14" height="14" viewBox="0 0 14 14" fill="none" xmlns="http://www.w3.org/2000/svg">
<path d="M11.0833 1.16675V2.33341H8.75V1.16675L11.0833 1.16675Z" fill="black" fill-opacity="0.7"/>
<path d="M7.58333 3.50008V2.33341H8.75V3.50008H7.58333Z" fill="black" fill-opacity="0.7"/>
<path fill-rule="evenodd" clip-rule="evenodd" d="M9.91667 5.83342H7.58333V3.50008H6.41667V2.33341H5.25V1.16675L2.91667 1.16675V2.33341H1.75L1.75 4.66675H2.91667V5.83342H4.08333V7.00008H6.41667V8.16675H2.33333V10.5001H3.5V11.6667H4.66667V12.8334H9.33333V11.6667H10.5V10.5001H11.6667V8.16675H7.58333V7.00008H9.91667V5.83342ZM3.5 9.33342V10.5001H4.66667V11.6667H9.33333V10.5001H10.5V9.33342H3.5ZM4.08333 5.83342V4.66675H2.91667V2.33341H5.25V3.50008H6.41667V5.83342H4.08333Z" fill="black" fill-opacity="0.7"/>
<path d="M11.0833 4.66675V5.83342H9.91667V4.66675H11.0833Z" fill="black" fill-opacity="0.7"/>
<path d="M11.0833 4.66675H12.25V2.33341H11.0833V4.66675Z" fill="black" fill-opacity="0.7"/>
</svg>
