<svg width="16" height="16" viewBox="0 0 16 16" fill="none" xmlns="http://www.w3.org/2000/svg">
<path d="M10 4.66675H11.3333V6.00008H10V4.66675Z" fill="#FF5B28"/>
<path d="M12.6667 7.33341H11.3333V6.00008H12.6667V7.33341Z" fill="#FF5B28"/>
<path d="M12.6667 8.66675V7.33341H14V8.66675H12.6667Z" fill="#FF5B28"/>
<path d="M11.3333 10.0001H12.6667V8.66675H11.3333V10.0001Z" fill="#FF5B28"/>
<path d="M11.3333 10.0001V11.3334H10V10.0001H11.3333Z" fill="#FF5B28"/>
<path d="M4.66667 6.00008H6V4.66675H4.66667V6.00008Z" fill="#FF5B28"/>
<path d="M3.33333 7.33341V6.00008H4.66667V7.33341H3.33333Z" fill="#FF5B28"/>
<path d="M3.33333 8.66675H2L2 7.33341H3.33333V8.66675Z" fill="#FF5B28"/>
<path fill-rule="evenodd" clip-rule="evenodd" d="M4.66667 10.0001V8.66675H3.33333V10.0001H4.66667ZM4.66667 10.0001V11.3334H6V10.0001H4.66667Z" fill="#FF5B28"/>
</svg>
