<svg xmlns="http://www.w3.org/2000/svg" width="740" height="836" viewBox="0 0 740 836"><path d="M 716 0 c 11.3137 0 16.9706 0 20.4853 3.5147 a 12.0000 12.0000 0 0 1 0.0000 0.0000 c 3.5147 3.5147 3.5147 9.1716 3.5147 20.4853 L 740 812 c 0 11.3137 0 16.9706 -3.5147 20.4853 a 12.0000 12.0000 0 0 1 -0.0000 0.0000 c -3.5147 3.5147 -9.1716 3.5147 -20.4853 3.5147 L 24 836 c -11.3137 0 -16.9706 0 -20.4853 -3.5147 a 12.0000 12.0000 0 0 1 -0.0000 -0.0000 c -3.5147 -3.5147 -3.5147 -9.1716 -3.5147 -20.4853 L 0 24 c 0 -11.3137 0 -16.9706 3.5147 -20.4853 a 12.0000 12.0000 0 0 1 0.0000 -0.0000 c 3.5147 -3.5147 9.1716 -3.5147 20.4853 -3.5147 Z" fill="#fff" stroke="#212121" stroke-opacity="0.12" stroke-width="1"/></svg>