<svg xmlns="http://www.w3.org/2000/svg" width="771" height="49" viewBox="0 0 771 49"><defs><linearGradient id="g" x1="0" y1="0" x2="0" y2="1"><stop offset="0" stop-color="#343434"/><stop offset="1" stop-color="#1e1e1e"/></linearGradient></defs><path d="M 747 0 c 11.3137 0 16.9706 0 20.4853 3.5147 a 12.0000 12.0000 0 0 1 0.0000 0.0000 c 3.5147 3.5147 3.5147 9.1716 3.5147 20.4853 L 771 25 c 0 11.3137 0 16.9706 -3.5147 20.4853 a 12.0000 12.0000 0 0 1 -0.0000 0.0000 c -3.5147 3.5147 -9.1716 3.5147 -20.4853 3.5147 L 24 49 c -11.3137 0 -16.9706 0 -20.4853 -3.5147 a 12.0000 12.0000 0 0 1 -0.0000 -0.0000 c -3.5147 -3.5147 -3.5147 -9.1716 -3.5147 -20.4853 L 0 24 c 0 -11.3137 0 -16.9706 3.5147 -20.4853 a 12.0000 12.0000 0 0 1 0.0000 -0.0000 c 3.5147 -3.5147 9.1716 -3.5147 20.4853 -3.5147 Z" fill="url(#g)"/></svg>