<svg xmlns="http://www.w3.org/2000/svg" width="787" height="94" viewBox="0 0 787 94"><path d="M 751 0 c 16.9706 0 25.4558 0 30.7279 5.2721 a 18.0000 18.0000 0 0 1 0.0000 0.0000 c 5.2721 5.2721 5.2721 13.7574 5.2721 30.7279 L 787 58 c 0 16.9706 0 25.4558 -5.2721 30.7279 a 18.0000 18.0000 0 0 1 -0.0000 0.0000 c -5.2721 5.2721 -13.7574 5.2721 -30.7279 5.2721 L 36 94 c -16.9706 0 -25.4558 0 -30.7279 -5.2721 a 18.0000 18.0000 0 0 1 -0.0000 -0.0000 c -5.2721 -5.2721 -5.2721 -13.7574 -5.2721 -30.7279 L 0 36 c 0 -16.9706 0 -25.4558 5.2721 -30.7279 a 18.0000 18.0000 0 0 1 0.0000 -0.0000 c 5.2721 -5.2721 13.7574 -5.2721 30.7279 -5.2721 Z" fill="rgba(33,33,33,0.5)"/></svg>