<svg width="240" height="311" viewBox="0 0 240 311" fill="none" xmlns="http://www.w3.org/2000/svg">
<mask id="path-1-inside-1_220_2143" fill="white">
<path d="M121.65 22.2C123.417 24.5554 124.3 25.7331 125.567 26.3666C126.834 27 128.306 27 131.25 27H228C233.657 27 236.485 27 238.243 28.7574C240 30.5147 240 33.3431 240 39V299C240 304.657 240 307.485 238.243 309.243C236.485 311 233.657 311 228 311H12C6.34315 311 3.51472 311 1.75736 309.243C0 307.485 0 304.657 0 299V12C0 6.34314 0 3.51472 1.75736 1.75736C3.51472 0 6.34315 0 12 0H99C101.944 0 103.416 0 104.683 0.633437C105.95 1.26687 106.833 2.44458 108.6 4.8L121.65 22.2Z"/>
</mask>
<path d="M121.65 22.2C123.417 24.5554 124.3 25.7331 125.567 26.3666C126.834 27 128.306 27 131.25 27H228C233.657 27 236.485 27 238.243 28.7574C240 30.5147 240 33.3431 240 39V299C240 304.657 240 307.485 238.243 309.243C236.485 311 233.657 311 228 311H12C6.34315 311 3.51472 311 1.75736 309.243C0 307.485 0 304.657 0 299V12C0 6.34314 0 3.51472 1.75736 1.75736C3.51472 0 6.34315 0 12 0H99C101.944 0 103.416 0 104.683 0.633437C105.95 1.26687 106.833 2.44458 108.6 4.8L121.65 22.2Z" fill="white"/>
<path d="M108.6 4.8L109.4 4.2L108.6 4.8ZM104.683 0.633437L105.13 -0.26099L104.683 0.633437ZM1.75736 1.75736L1.05025 1.05025L1.75736 1.75736ZM1.75736 309.243L1.05025 309.95L1.75736 309.243ZM238.243 309.243L237.536 308.536L238.243 309.243ZM238.243 28.7574L238.95 28.0503L238.243 28.7574ZM121.65 22.2L120.85 22.8L121.65 22.2ZM125.567 26.3666L126.014 25.4721L125.567 26.3666ZM131.25 27V28H228V27V26H131.25V27ZM240 39H239V299H240H241V39H240ZM228 311V310H12V311V312H228V311ZM0 299H1V12H0H-1V299H0ZM12 0V1H99V0V-1H12V0ZM108.6 4.8L107.8 5.4L120.85 22.8L121.65 22.2L122.45 21.6L109.4 4.2L108.6 4.8ZM99 0V1C102.045 1 103.23 1.0248 104.236 1.52786L104.683 0.633437L105.13 -0.26099C103.603 -1.0248 101.844 -1 99 -1V0ZM108.6 4.8L109.4 4.2C107.694 1.92489 106.658 0.502822 105.13 -0.26099L104.683 0.633437L104.236 1.52786C105.242 2.03093 105.973 2.96427 107.8 5.4L108.6 4.8ZM0 12H1C1 9.1433 1.00212 7.10138 1.21075 5.54961C1.41551 4.02662 1.80256 3.12638 2.46447 2.46447L1.75736 1.75736L1.05025 1.05025C-0.045196 2.1457 -0.536834 3.53835 -0.771413 5.28312C-1.00212 6.99912 -1 9.19984 -1 12H0ZM12 0V-1C9.19984 -1 6.99913 -1.00212 5.28312 -0.771413C3.53835 -0.536834 2.1457 -0.0451961 1.05025 1.05025L1.75736 1.75736L2.46447 2.46447C3.12638 1.80256 4.02662 1.41551 5.54962 1.21075C7.10138 1.00212 9.1433 1 12 1V0ZM12 311V310C9.1433 310 7.10138 309.998 5.54962 309.789C4.02662 309.584 3.12638 309.197 2.46447 308.536L1.75736 309.243L1.05025 309.95C2.1457 311.045 3.53835 311.537 5.28312 311.771C6.99913 312.002 9.19984 312 12 312V311ZM0 299H-1C-1 301.8 -1.00212 304.001 -0.771413 305.717C-0.536834 307.462 -0.0451961 308.854 1.05025 309.95L1.75736 309.243L2.46447 308.536C1.80256 307.874 1.41551 306.973 1.21075 305.45C1.00212 303.899 1 301.857 1 299H0ZM240 299H239C239 301.857 238.998 303.899 238.789 305.45C238.584 306.973 238.197 307.874 237.536 308.536L238.243 309.243L238.95 309.95C240.045 308.854 240.537 307.462 240.771 305.717C241.002 304.001 241 301.8 241 299H240ZM228 311V312C230.8 312 233.001 312.002 234.717 311.771C236.462 311.537 237.854 311.045 238.95 309.95L238.243 309.243L237.536 308.536C236.874 309.197 235.973 309.584 234.45 309.789C232.899 309.998 230.857 310 228 310V311ZM228 27V28C230.857 28 232.899 28.0021 234.45 28.2108C235.973 28.4155 236.874 28.8026 237.536 29.4645L238.243 28.7574L238.95 28.0503C237.854 26.9548 236.462 26.4632 234.717 26.2286C233.001 25.9979 230.8 26 228 26V27ZM240 39H241C241 36.1998 241.002 33.9991 240.771 32.2831C240.537 30.5383 240.045 29.1457 238.95 28.0503L238.243 28.7574L237.536 29.4645C238.197 30.1264 238.584 31.0266 238.789 32.5496C238.998 34.1014 239 36.1433 239 39H240ZM131.25 27V26C128.205 26 127.02 25.9752 126.014 25.4721L125.567 26.3666L125.12 27.261C126.647 28.0248 128.406 28 131.25 28V27ZM121.65 22.2L120.85 22.8C122.556 25.0751 123.592 26.4972 125.12 27.261L125.567 26.3666L126.014 25.4721C125.008 24.9691 124.277 24.0357 122.45 21.6L121.65 22.2Z" fill="black" fill-opacity="0.12" mask="url(#path-1-inside-1_220_2143)"/>
</svg>
