<svg width="240" height="85" viewBox="0 0 240 85" fill="none" xmlns="http://www.w3.org/2000/svg">
<mask id="path-1-inside-1_220_2159" fill="white">
<path d="M189.9 21.2C191.667 23.5554 192.55 24.7331 193.817 25.3666C195.084 26 196.556 26 199.5 26H228C233.657 26 236.485 26 238.243 27.7574C240 29.5147 240 32.3431 240 38V73C240 78.6569 240 81.4853 238.243 83.2426C236.485 85 233.657 85 228 85H12C6.34315 85 3.51472 85 1.75736 83.2426C0 81.4853 0 78.6569 0 73V12C0 6.34315 0 3.51472 1.75736 1.75736C3.51472 0 6.34315 0 12 0H168C170.944 0 172.416 0 173.683 0.633437C174.95 1.26687 175.833 2.44458 177.6 4.8L189.9 21.2Z"/>
</mask>
<path d="M189.9 21.2C191.667 23.5554 192.55 24.7331 193.817 25.3666C195.084 26 196.556 26 199.5 26H228C233.657 26 236.485 26 238.243 27.7574C240 29.5147 240 32.3431 240 38V73C240 78.6569 240 81.4853 238.243 83.2426C236.485 85 233.657 85 228 85H12C6.34315 85 3.51472 85 1.75736 83.2426C0 81.4853 0 78.6569 0 73V12C0 6.34315 0 3.51472 1.75736 1.75736C3.51472 0 6.34315 0 12 0H168C170.944 0 172.416 0 173.683 0.633437C174.95 1.26687 175.833 2.44458 177.6 4.8L189.9 21.2Z" fill="white"/>
<path d="M177.6 4.8L176.8 5.4L177.6 4.8ZM173.683 0.633437L173.236 1.52786L173.683 0.633437ZM1.75736 1.75736L1.05025 1.05025L1.75736 1.75736ZM1.75736 83.2426L1.05025 83.9497L1.75736 83.2426ZM238.243 83.2426L237.536 82.5355L238.243 83.2426ZM238.243 27.7574L237.536 28.4645L238.243 27.7574ZM189.9 21.2L189.1 21.8L189.9 21.2ZM193.817 25.3666L193.37 26.261L193.817 25.3666ZM199.5 26V27H228V26V25H199.5V26ZM240 38H239V73H240H241V38H240ZM228 85V84H12V85V86H228V85ZM0 73H1V12H0H-1V73H0ZM12 0V1H168V0V-1H12V0ZM177.6 4.8L176.8 5.4L189.1 21.8L189.9 21.2L190.7 20.6L178.4 4.2L177.6 4.8ZM168 0V1C171.045 1 172.23 1.0248 173.236 1.52786L173.683 0.633437L174.13 -0.26099C172.603 -1.0248 170.844 -1 168 -1V0ZM177.6 4.8L178.4 4.2C176.694 1.92489 175.658 0.502822 174.13 -0.26099L173.683 0.633437L173.236 1.52786C174.242 2.03093 174.973 2.96427 176.8 5.4L177.6 4.8ZM0 12H1C1 9.1433 1.00212 7.10138 1.21075 5.54962C1.41551 4.02662 1.80256 3.12638 2.46447 2.46447L1.75736 1.75736L1.05025 1.05025C-0.0451961 2.1457 -0.536834 3.53835 -0.771413 5.28312C-1.00212 6.99913 -1 9.19984 -1 12H0ZM12 0V-1C9.19984 -1 6.99913 -1.00212 5.28312 -0.771413C3.53835 -0.536834 2.1457 -0.0451961 1.05025 1.05025L1.75736 1.75736L2.46447 2.46447C3.12638 1.80256 4.02662 1.41551 5.54962 1.21075C7.10138 1.00212 9.1433 1 12 1V0ZM12 85V84C9.1433 84 7.10138 83.9979 5.54962 83.7892C4.02662 83.5845 3.12638 83.1974 2.46447 82.5355L1.75736 83.2426L1.05025 83.9497C2.1457 85.0452 3.53835 85.5368 5.28312 85.7714C6.99913 86.0021 9.19984 86 12 86V85ZM0 73H-1C-1 75.8002 -1.00212 78.0009 -0.771413 79.7169C-0.536834 81.4616 -0.0451961 82.8543 1.05025 83.9497L1.75736 83.2426L2.46447 82.5355C1.80256 81.8736 1.41551 80.9734 1.21075 79.4504C1.00212 77.8986 1 75.8567 1 73H0ZM240 73H239C239 75.8567 238.998 77.8986 238.789 79.4504C238.584 80.9734 238.197 81.8736 237.536 82.5355L238.243 83.2426L238.95 83.9497C240.045 82.8543 240.537 81.4616 240.771 79.7169C241.002 78.0009 241 75.8002 241 73H240ZM228 85V86C230.8 86 233.001 86.0021 234.717 85.7714C236.462 85.5368 237.854 85.0452 238.95 83.9497L238.243 83.2426L237.536 82.5355C236.874 83.1974 235.973 83.5845 234.45 83.7892C232.899 83.9979 230.857 84 228 84V85ZM228 26V27C230.857 27 232.899 27.0021 234.45 27.2108C235.973 27.4155 236.874 27.8026 237.536 28.4645L238.243 27.7574L238.95 27.0503C237.854 25.9548 236.462 25.4632 234.717 25.2286C233.001 24.9979 230.8 25 228 25V26ZM240 38H241C241 35.1998 241.002 32.9991 240.771 31.2831C240.537 29.5383 240.045 28.1457 238.95 27.0503L238.243 27.7574L237.536 28.4645C238.197 29.1264 238.584 30.0266 238.789 31.5496C238.998 33.1014 239 35.1433 239 38H240ZM199.5 26V25C196.455 25 195.27 24.9752 194.264 24.4721L193.817 25.3666L193.37 26.261C194.897 27.0248 196.656 27 199.5 27V26ZM189.9 21.2L189.1 21.8C190.806 24.0751 191.842 25.4972 193.37 26.261L193.817 25.3666L194.264 24.4721C193.258 23.9691 192.527 23.0357 190.7 20.6L189.9 21.2Z" fill="black" fill-opacity="0.12" mask="url(#path-1-inside-1_220_2159)"/>
</svg>
