<svg width="240" height="241" viewBox="0 0 240 241" fill="none" xmlns="http://www.w3.org/2000/svg">
<mask id="path-1-inside-1_220_2115" fill="white">
<path d="M97.4 21.2C99.1666 23.5554 100.05 24.7331 101.317 25.3666C102.584 26 104.056 26 107 26H228C233.657 26 236.485 26 238.243 27.7574C240 29.5147 240 32.3431 240 38V229C240 234.657 240 237.485 238.243 239.243C236.485 241 233.657 241 228 241H12C6.34315 241 3.51472 241 1.75736 239.243C0 237.485 0 234.657 0 229V12C0 6.34315 0 3.51472 1.75736 1.75736C3.51472 0 6.34315 0 12 0H75.5C78.4443 0 79.9164 0 81.1833 0.633437C82.4502 1.26687 83.3334 2.44458 85.1 4.8L97.4 21.2Z"/>
</mask>
<path d="M97.4 21.2C99.1666 23.5554 100.05 24.7331 101.317 25.3666C102.584 26 104.056 26 107 26H228C233.657 26 236.485 26 238.243 27.7574C240 29.5147 240 32.3431 240 38V229C240 234.657 240 237.485 238.243 239.243C236.485 241 233.657 241 228 241H12C6.34315 241 3.51472 241 1.75736 239.243C0 237.485 0 234.657 0 229V12C0 6.34315 0 3.51472 1.75736 1.75736C3.51472 0 6.34315 0 12 0H75.5C78.4443 0 79.9164 0 81.1833 0.633437C82.4502 1.26687 83.3334 2.44458 85.1 4.8L97.4 21.2Z" fill="white"/>
<path d="M85.1 4.8L85.9 4.2L85.1 4.8ZM81.1833 0.633437L80.7361 1.52786L81.1833 0.633437ZM1.75736 1.75736L1.05025 1.05025L1.75736 1.75736ZM1.75736 239.243L2.46447 238.536L1.75736 239.243ZM238.243 239.243L237.536 238.536L238.243 239.243ZM238.243 27.7574L237.536 28.4645L238.243 27.7574ZM97.4 21.2L96.6 21.8L97.4 21.2ZM101.317 25.3666L101.764 24.4721L101.317 25.3666ZM107 26V27H228V26V25H107V26ZM240 38H239V229H240H241V38H240ZM228 241V240H12V241V242H228V241ZM0 229H1V12H0H-1V229H0ZM12 0V1H75.5V0V-1H12V0ZM85.1 4.8L84.3 5.4L96.6 21.8L97.4 21.2L98.2 20.6L85.9 4.2L85.1 4.8ZM75.5 0V1C78.5447 1 79.7299 1.0248 80.7361 1.52786L81.1833 0.633437L81.6305 -0.26099C80.1029 -1.0248 78.3439 -1 75.5 -1V0ZM85.1 4.8L85.9 4.2C84.1937 1.92489 83.1581 0.502822 81.6305 -0.26099L81.1833 0.633437L80.7361 1.52786C81.7422 2.03093 82.4732 2.96427 84.3 5.4L85.1 4.8ZM0 12H1C1 9.1433 1.00212 7.10138 1.21075 5.54962C1.41551 4.02662 1.80256 3.12638 2.46447 2.46447L1.75736 1.75736L1.05025 1.05025C-0.0451961 2.1457 -0.536834 3.53835 -0.771413 5.28312C-1.00212 6.99913 -1 9.19984 -1 12H0ZM12 0V-1C9.19984 -1 6.99913 -1.00212 5.28312 -0.771413C3.53835 -0.536834 2.1457 -0.0451961 1.05025 1.05025L1.75736 1.75736L2.46447 2.46447C3.12638 1.80256 4.02662 1.41551 5.54962 1.21075C7.10138 1.00212 9.1433 1 12 1V0ZM12 241V240C9.1433 240 7.10138 239.998 5.54962 239.789C4.02662 239.584 3.12638 239.197 2.46447 238.536L1.75736 239.243L1.05025 239.95C2.1457 241.045 3.53835 241.537 5.28312 241.771C6.99913 242.002 9.19984 242 12 242V241ZM0 229H-1C-1 231.8 -1.00212 234.001 -0.771413 235.717C-0.536834 237.462 -0.0451961 238.854 1.05025 239.95L1.75736 239.243L2.46447 238.536C1.80256 237.874 1.41551 236.973 1.21075 235.45C1.00212 233.899 1 231.857 1 229H0ZM240 229H239C239 231.857 238.998 233.899 238.789 235.45C238.584 236.973 238.197 237.874 237.536 238.536L238.243 239.243L238.95 239.95C240.045 238.854 240.537 237.462 240.771 235.717C241.002 234.001 241 231.8 241 229H240ZM228 241V242C230.8 242 233.001 242.002 234.717 241.771C236.462 241.537 237.854 241.045 238.95 239.95L238.243 239.243L237.536 238.536C236.874 239.197 235.973 239.584 234.45 239.789C232.899 239.998 230.857 240 228 240V241ZM228 26V27C230.857 27 232.899 27.0021 234.45 27.2108C235.973 27.4155 236.874 27.8026 237.536 28.4645L238.243 27.7574L238.95 27.0503C237.854 25.9548 236.462 25.4632 234.717 25.2286C233.001 24.9979 230.8 25 228 25V26ZM240 38H241C241 35.1998 241.002 32.9991 240.771 31.2831C240.537 29.5383 240.045 28.1457 238.95 27.0503L238.243 27.7574L237.536 28.4645C238.197 29.1264 238.584 30.0266 238.789 31.5496C238.998 33.1014 239 35.1433 239 38H240ZM107 26V25C103.955 25 102.77 24.9752 101.764 24.4721L101.317 25.3666L100.87 26.261C102.397 27.0248 104.156 27 107 27V26ZM97.4 21.2L96.6 21.8C98.3063 24.0751 99.3419 25.4972 100.87 26.261L101.317 25.3666L101.764 24.4721C100.758 23.9691 100.027 23.0357 98.2 20.6L97.4 21.2Z" fill="black" fill-opacity="0.12" mask="url(#path-1-inside-1_220_2115)"/>
</svg>
