<svg width="99" height="27" viewBox="0 0 99 27" fill="none" xmlns="http://www.w3.org/2000/svg">
<foreignObject x="-34" y="-34" width="167" height="95"><div xmlns="http://www.w3.org/1999/xhtml" style="backdrop-filter:blur(17px);clip-path:url(#bgblur_0_220_166_clip_path);height:100%;width:100%"></div></foreignObject><path data-figma-bg-blur-radius="34" d="M98.1248 4.44631C98.3656 4.76709 98.5 5.19354 98.5 5.63704V22.9174C98.5 23.8688 97.8941 24.6404 97.146 24.6417L31.7617 24.7173C31.3504 24.718 30.9615 24.9562 30.7047 25.3647L30.3979 25.8525C30.1406 26.2618 29.751 26.5 29.339 26.5H2.75651C2.3969 26.5 2.05202 26.3183 1.79774 25.995L0.907621 24.863C0.862829 24.806 0.802043 24.7741 0.738699 24.7743C0.606945 24.7746 0.5 24.6388 0.5 24.4713V2.35619C0.5 1.40488 1.10582 0.633297 1.85387 0.631873L94.5799 0.500002C94.9511 0.499296 95.3063 0.692152 95.5626 1.03358L98.1248 4.44631Z" fill="white" stroke="#212121" stroke-opacity="0.2"/>
<defs>
<clipPath id="bgblur_0_220_166_clip_path" transform="translate(34 34)"><path d="M98.1248 4.44631C98.3656 4.76709 98.5 5.19354 98.5 5.63704V22.9174C98.5 23.8688 97.8941 24.6404 97.146 24.6417L31.7617 24.7173C31.3504 24.718 30.9615 24.9562 30.7047 25.3647L30.3979 25.8525C30.1406 26.2618 29.751 26.5 29.339 26.5H2.75651C2.3969 26.5 2.05202 26.3183 1.79774 25.995L0.907621 24.863C0.862829 24.806 0.802043 24.7741 0.738699 24.7743C0.606945 24.7746 0.5 24.6388 0.5 24.4713V2.35619C0.5 1.40488 1.10582 0.633297 1.85387 0.631873L94.5799 0.500002C94.9511 0.499296 95.3063 0.692152 95.5626 1.03358L98.1248 4.44631Z"/>
</clipPath></defs>
</svg>
