<svg width="33" height="32" viewBox="0 0 33 32" fill="none" xmlns="http://www.w3.org/2000/svg">
<g clip-path="url(#clip0_182_107)">
<path d="M12.3336 17.701C13.7071 17.701 14.9405 17.1005 15.7854 16.1476C15.9292 15.9855 16.1911 15.9855 16.3349 16.1476C17.1798 17.1005 18.4131 17.701 19.7867 17.701C22.3339 17.701 24.3987 15.6358 24.3987 13.0884C24.3987 10.5409 22.3339 8.4757 19.7867 8.4757C18.4131 8.4757 17.1798 9.07622 16.3349 10.0291C16.1911 10.1912 15.9292 10.1912 15.7854 10.0291C14.9405 9.07622 13.7071 8.4757 12.3336 8.4757C9.78643 8.4757 7.72154 10.5409 7.72154 13.0884C7.72154 15.6358 9.78643 17.701 12.3336 17.701Z" fill="black"/>
<path fill-rule="evenodd" clip-rule="evenodd" d="M0.640047 0C0.286559 0 0 0.286537 0 0.639999V31.36C0 31.7135 0.286558 32 0.640047 32H4.83334C5.0222 30.8267 5.55197 29.7214 6.42884 28.8409C6.86628 28.4017 7.35944 28.0492 7.88892 27.7826C8.09375 27.6795 8.1502 27.4035 7.98838 27.241L6.32062 25.5664C6.11967 25.3646 6.2626 25.0206 6.54739 25.0206H25.4611C25.7459 25.0206 25.8888 25.3646 25.6879 25.5664L24.0543 27.2067C23.8912 27.3705 23.9501 27.6492 24.158 27.7505C24.712 28.0207 25.2276 28.3838 25.6828 28.8409C26.5597 29.7214 27.0894 30.8267 27.2783 32H31.3623C31.7158 32 32.0024 31.7135 32.0024 31.36V0.64C32.0024 0.286538 31.7158 0 31.3623 0H0.640047ZM16.2926 5.62366C16.1675 5.74928 15.9641 5.74928 15.8391 5.62366L13.2957 3.06954C13.1706 2.94392 12.9672 2.94392 12.8422 3.06954L10.1645 5.75859C10.1044 5.8189 10.0228 5.8528 9.93768 5.8528H6.12316C5.94642 5.8528 5.80314 5.99607 5.80314 6.1728V10.0063C5.80314 10.0909 5.76961 10.1721 5.70989 10.232L3.05442 12.8988C2.93009 13.0236 2.93009 13.2255 3.05442 13.3503L5.70989 16.0171C5.76961 16.0771 5.80314 16.1582 5.80314 16.2429V20.0714C5.80314 20.2482 5.94642 20.3914 6.12316 20.3914H9.93282C10.0179 20.3914 10.0995 20.4253 10.1596 20.4856L12.8422 23.1796C12.9672 23.3052 13.1706 23.3052 13.2957 23.1796L15.8213 20.6433C15.9464 20.5176 16.1498 20.5176 16.2749 20.6433L18.8182 23.1974C18.9433 23.323 19.1467 23.323 19.2718 23.1974L21.9544 20.5034C22.0144 20.4431 22.096 20.4092 22.1811 20.4092H25.9433C26.1201 20.4092 26.2634 20.2659 26.2634 20.0892V16.3083C26.2634 16.2237 26.2969 16.1425 26.3566 16.0825L29.0595 13.3681C29.1839 13.2433 29.1839 13.0414 29.0595 12.9166L26.3566 10.2022C26.2969 10.1422 26.2634 10.061 26.2634 9.97639V6.19059C26.2634 6.01386 26.1201 5.87059 25.9433 5.87059H22.1763C22.0911 5.87059 22.0095 5.83668 21.9495 5.77637L19.2718 3.08733C19.1467 2.96171 18.9433 2.96171 18.8182 3.08733L16.2926 5.62366Z" fill="black"/>
</g>
<defs>
<clipPath id="clip0_182_107">
<rect width="32.0024" height="32" rx="3.56364" fill="white"/>
</clipPath>
</defs>
</svg>
